<svg width="155" height="154" viewBox="0 0 155 154" fill="none" xmlns="http://www.w3.org/2000/svg">
<circle cx="77.6445" cy="85.999" r="40" fill="#0077FE"/>
<path d="M81.2645 85.496C82.2965 85.532 83.1905 85.826 83.9465 86.378C84.7145 86.93 85.2965 87.662 85.6925 88.574C86.1005 89.486 86.3045 90.518 86.3045 91.67C86.3045 93.146 85.9865 94.514 85.3505 95.774C84.7145 97.022 83.7245 98.03 82.3805 98.798C81.0485 99.554 79.3265 99.932 77.2145 99.932C75.4145 99.932 73.9145 99.698 72.7145 99.23C71.5145 98.75 70.5605 98.096 69.8525 97.268C69.1565 96.44 68.6585 95.492 68.3585 94.424C68.0705 93.344 67.9265 92.192 67.9265 90.968C67.9265 90.956 67.9265 90.944 67.9265 90.932C67.9265 90.92 67.9265 90.908 67.9265 90.896H73.5065C73.5065 90.908 73.5065 90.92 73.5065 90.932C73.5065 90.944 73.5065 90.956 73.5065 90.968C73.5065 92.18 73.6565 93.122 73.9565 93.794C74.2685 94.466 74.7065 94.934 75.2705 95.198C75.8345 95.462 76.5065 95.594 77.2865 95.594C78.3065 95.594 79.1285 95.276 79.7525 94.64C80.3885 94.004 80.7065 92.966 80.7065 91.526C80.7065 90.914 80.6345 90.368 80.4905 89.888C80.3585 89.408 80.1425 89 79.8425 88.664C79.5425 88.328 79.1345 88.076 78.6185 87.908C78.1025 87.728 77.4665 87.638 76.7105 87.638H75.7745V83.732H76.7105C77.4545 83.732 78.0785 83.636 78.5825 83.444C79.0985 83.24 79.5125 82.97 79.8245 82.634C80.1365 82.286 80.3585 81.896 80.4905 81.464C80.6345 81.02 80.7065 80.564 80.7065 80.096C80.7065 78.98 80.3945 78.17 79.7705 77.666C79.1465 77.162 78.3485 76.91 77.3765 76.91C76.2605 76.91 75.3365 77.216 74.6045 77.828C73.8725 78.44 73.5065 79.55 73.5065 81.158H67.9265C67.9265 80.006 68.1005 78.914 68.4485 77.882C68.7965 76.838 69.3425 75.92 70.0865 75.128C70.8305 74.324 71.7965 73.694 72.9845 73.238C74.1725 72.782 75.6005 72.554 77.2685 72.554C79.3805 72.554 81.1025 72.902 82.4345 73.598C83.7665 74.294 84.7445 75.194 85.3685 76.298C85.9925 77.402 86.3045 78.572 86.3045 79.808C86.3045 80.816 86.1005 81.746 85.6925 82.598C85.2965 83.45 84.7145 84.134 83.9465 84.65C83.1905 85.166 82.2965 85.448 81.2645 85.496Z" fill="white"/>
<path d="M136.759 103.415C133.238 122.475 125.499 132.687 114.085 138.181C102.608 143.704 87.347 144.499 68.6654 144.499C50.2437 144.499 38.5928 134.016 31.5182 119.316C24.4318 104.591 21.9688 85.68 21.9688 69.0113C21.9692 50.2939 24.4485 39.2561 31.4067 32.8472C34.8854 29.643 39.5246 27.5572 45.6442 26.2748C51.7679 24.9915 59.3434 24.5187 68.6654 24.5187C87.2108 24.5187 106.556 31.7356 120.099 45.201C133.627 58.6516 141.387 78.3569 136.759 103.415Z" stroke="#01E7FF"/>
<path d="M80.4261 139.502C61.4276 137.073 42.4452 128.224 29.7133 115.6C16.989 102.982 10.5486 86.6471 16.4532 69.1671C22.4134 51.5224 32.311 36.0644 44.6147 26.3559C56.9055 16.6577 71.5829 12.7016 87.1894 17.9915C90.1692 19.0015 93.0381 19.9427 95.7915 20.846C101.235 22.6317 106.227 24.2694 110.734 25.9992C117.513 28.6015 123.125 31.3887 127.428 35.1429C135.974 42.6002 139.492 54.0038 136.262 75.9238C135.201 81.3008 134.318 86.4347 133.487 91.2844L133.433 91.5972C132.621 96.3364 131.856 100.799 131.018 104.96C129.304 113.473 127.295 120.668 123.996 126.31C120.708 131.931 116.135 136.018 109.253 138.312C102.35 140.614 93.0908 141.122 80.4261 139.502Z" stroke="#01E7FF"/>
</svg>
