<svg width="122" height="41" viewBox="0 0 122 41" fill="none" xmlns="http://www.w3.org/2000/svg">
<path d="M0.752947 20.711C15.4148 31.4106 32.2038 39.3191 50.5597 40.3746C63.9402 41.1392 77.1961 37.7254 89.0239 31.5101C97.5161 27.0496 105.227 21.0917 112.013 14.3247C113.602 12.7414 115.179 11.1007 116.672 9.39459C115.307 15.4742 113.92 21.5632 112.907 27.69C112.54 29.9152 115.972 30.6348 116.341 28.3921C117.751 19.8586 119.892 11.3887 121.684 2.92517C121.975 1.56364 120.691 0.596066 119.439 0.903344C110.715 3.03397 101.989 5.16566 93.2616 7.30012C91.0557 7.83845 92.1372 11.1741 94.3206 10.6415C101.369 8.9194 108.413 7.19749 115.463 5.47349C106.887 16.3725 94.7497 25.3997 82.3002 30.9029C71.4288 35.7076 59.5008 37.7959 47.676 36.6602C31.3381 35.0894 16.1999 27.6551 3.10702 18.0965C1.30038 16.7813 -1.069 19.3802 0.752947 20.711Z" fill="#01E7FF"/>
</svg>
