<svg width="157" height="162" viewBox="0 0 157 162" fill="none" xmlns="http://www.w3.org/2000/svg">
<circle cx="79.5" cy="82.0032" r="40" fill="#0077FE"/>
<path d="M85.118 68.9138V95.4998H79.574V74.1338C79.418 74.2538 79.082 74.4098 78.566 74.6018C78.062 74.7818 77.456 74.9558 76.748 75.1238C76.04 75.2918 75.308 75.4058 74.552 75.4658V71.0738C75.308 70.9778 76.046 70.8158 76.766 70.5878C77.486 70.3478 78.104 70.0778 78.62 69.7778C79.148 69.4778 79.496 69.1898 79.664 68.9138H85.118Z" fill="white"/>
<path d="M141.991 98.4566C138.474 117.389 129.939 127.765 117.704 133.448C105.413 139.156 89.3324 140.156 70.6584 140.156C52.1454 140.156 38.0283 132.46 28.5289 120.656C19.0201 108.84 14.1211 92.8842 14.1211 76.3659C14.1215 57.84 19.0237 43.9845 28.4887 34.7566C37.956 25.5265 52.0692 20.8469 70.6584 20.8469C89.2125 20.8469 109.374 27.8175 123.727 41.0048C138.061 54.1755 146.616 73.5552 141.991 98.4566Z" stroke="#01E7FF"/>
<path d="M40.8964 134.592C31.4412 133.39 24.9807 129.95 20.7578 124.971C16.5288 119.986 14.4938 113.398 14.0096 105.811C13.0399 90.6145 18.2997 71.5982 24.2841 53.9814C30.2172 36.5153 42.0596 25.6623 56.3296 20.4824C70.6141 15.2974 87.3586 15.7891 103.068 21.0839C120.686 27.0226 132.291 36.0897 138.033 47.9785C143.776 59.8693 143.702 74.6846 137.745 92.2234C131.808 109.701 120.263 121.884 103.892 128.909C87.502 135.941 66.2457 137.815 40.8964 134.592Z" stroke="#01E7FF"/>
</svg>
