<svg width="157" height="153" viewBox="0 0 157 153" fill="none" xmlns="http://www.w3.org/2000/svg">
<circle cx="70.6445" cy="79.9991" r="40" fill="#0077FE"/>
<path d="M62.12 93.5001V88.9281C62.228 88.6641 62.546 88.2741 63.074 87.7581C63.602 87.2301 64.244 86.6361 65 85.9761C65.756 85.3161 66.548 84.6441 67.376 83.9601C68.216 83.2641 68.99 82.6221 69.698 82.0341C70.538 81.3381 71.354 80.6181 72.146 79.8741C72.938 79.1181 73.592 78.3201 74.108 77.4801C74.636 76.6281 74.9 75.7341 74.9 74.7981C74.9 73.6221 74.618 72.6801 74.054 71.9721C73.502 71.2641 72.62 70.9101 71.408 70.9101C70.436 70.9101 69.662 71.1261 69.086 71.5581C68.522 71.9781 68.12 72.5721 67.88 73.3401C67.64 74.0961 67.52 74.9841 67.52 76.0041H61.94C61.94 74.0601 62.306 72.3801 63.038 70.9641C63.782 69.5481 64.862 68.4621 66.278 67.7061C67.706 66.9381 69.446 66.5541 71.498 66.5541C73.49 66.5541 75.152 66.9201 76.484 67.6521C77.828 68.3841 78.836 69.3741 79.508 70.6221C80.18 71.8701 80.516 73.2801 80.516 74.8521C80.516 75.9081 80.312 76.8981 79.904 77.8221C79.508 78.7341 78.986 79.5801 78.338 80.3601C77.702 81.1401 77.018 81.8541 76.286 82.5021C75.554 83.1381 74.864 83.7141 74.216 84.2301C73.124 85.0941 72.176 85.8561 71.372 86.5161C70.568 87.1761 69.926 87.7341 69.446 88.1901C68.978 88.6461 68.69 88.9941 68.582 89.2341H80.354V93.5001H62.12Z" fill="white"/>
<path d="M133.242 96.7205C129.71 115.76 123.808 125.24 114.285 130.034C109.498 132.443 103.757 133.691 96.857 134.331C89.9555 134.972 81.9334 135.004 72.5928 135.004C35.4779 135.004 5.34766 107.547 5.34766 74.593C5.34807 55.9976 8.82527 41.7385 16.8644 32.1302C24.8873 22.5413 37.5379 17.4874 56.1197 17.4874C74.6746 17.4874 96.2912 24.8418 112.098 38.4368C127.889 52.0173 137.864 71.8028 133.242 96.7205Z" stroke="#01E7FF"/>
<path d="M32.7208 122.562C23.2323 121.353 17.1579 118.499 13.5141 114.429C9.87629 110.366 8.58802 105.01 8.85203 98.6308C9.11631 92.2451 10.9344 84.892 13.4478 76.9045C15.0118 71.9342 16.836 66.7444 18.7134 61.4034C19.8549 58.156 21.016 54.8527 22.1503 51.5089C28.0958 33.9806 38.3037 23.2901 50.8981 18.2797C63.508 13.263 78.5867 13.9103 94.3126 19.2185C129.468 31.0858 147.39 64.9812 135.516 99.9896C132.555 108.718 127.838 114.873 121.657 119.113C115.467 123.359 107.775 125.709 98.8308 126.765C81.6089 128.8 59.8953 126.029 35.6396 122.934C34.6707 122.81 33.6977 122.686 32.7208 122.562Z" stroke="#01E7FF"/>
</svg>
