<svg width="122" height="41" viewBox="0 0 122 41" fill="none" xmlns="http://www.w3.org/2000/svg">
<path d="M0.752947 20.2756C15.4148 9.57601 32.2038 1.66751 50.5597 0.611993C63.9402 -0.152586 77.1961 3.2612 89.0239 9.47649C97.5161 13.9369 105.227 19.8949 112.013 26.6619C113.602 28.2451 115.179 29.8859 116.672 31.592C115.307 25.5124 113.92 19.4233 112.907 13.2966C112.54 11.0713 115.972 10.3518 116.341 12.5944C117.751 21.128 119.892 29.5979 121.684 38.0614C121.975 39.4229 120.691 40.3905 119.439 40.0832C110.715 37.9526 101.989 35.8209 93.2616 33.6864C91.0557 33.1481 92.1372 29.8125 94.3206 30.3451C101.369 32.0672 108.413 33.7891 115.463 35.5131C106.887 24.614 94.7497 15.5869 82.3002 10.0837C71.4288 5.27895 59.5008 3.19065 47.676 4.32632C31.3381 5.89721 16.1999 13.3315 3.10702 22.89C1.30038 24.2053 -1.069 21.6063 0.752947 20.2756Z" fill="#01E7FF"/>
</svg>
