<svg width="240" height="35" viewBox="0 0 240 35" fill="none" xmlns="http://www.w3.org/2000/svg">
<path d="M15.5289 32.4847C23.8047 32.4847 30.5136 25.7758 30.5136 17.5C30.5136 9.22413 23.8047 2.51523 15.5289 2.51523C7.253 2.51523 0.544098 9.22413 0.544098 17.5C0.544098 25.7758 7.253 32.4847 15.5289 32.4847Z" fill="#01E7FF"/>
<path d="M7.99626 17.005C8.452 17.0011 8.89701 17.1433 9.26616 17.4106C9.6353 17.6779 9.90919 18.0563 10.0478 18.4905C10.4071 19.6643 11.1336 20.6918 12.1206 21.4218C13.1075 22.1518 14.3026 22.5458 15.5302 22.5458C16.7578 22.5458 17.9529 22.1518 18.9398 21.4218C19.9267 20.6918 20.6533 19.6643 21.0126 18.4905C21.1511 18.0566 21.4247 17.6784 21.7935 17.4111C22.1623 17.1438 22.6069 17.0015 23.0624 17.005C23.401 17.0042 23.735 17.0832 24.0375 17.2353C24.3399 17.3875 24.6024 17.6087 24.8036 17.881C25.0048 18.1534 25.1392 18.4692 25.1959 18.803C25.2525 19.1368 25.2299 19.4793 25.1298 19.8028C24.4915 21.848 23.2164 23.6358 21.4905 24.9053C19.7645 26.1747 17.678 26.8594 15.5355 26.8594C13.393 26.8594 11.3065 26.1747 9.58054 24.9053C7.85458 23.6358 6.57946 21.848 5.94123 19.8028C5.84142 19.4803 5.81861 19.1389 5.87461 18.8061C5.93062 18.4732 6.06388 18.1581 6.26371 17.886C6.46354 17.614 6.72436 17.3925 7.02525 17.2395C7.32613 17.0865 7.6587 17.0062 7.99626 17.005Z" fill="white"/>
<path opacity="0.77" d="M30.6041 32.4847C38.8799 32.4847 45.5888 25.7758 45.5888 17.4999C45.5888 9.22407 38.8799 2.51517 30.6041 2.51517C22.3282 2.51517 15.6193 9.22407 15.6193 17.4999C15.6193 25.7758 22.3282 32.4847 30.6041 32.4847Z" fill="#0077FE"/>
<path d="M23.073 16.9906C23.529 16.9869 23.9741 17.1293 24.3433 17.397C24.7125 17.6646 24.9862 18.0435 25.1245 18.478C25.4838 19.6518 26.2104 20.6793 27.1973 21.4093C28.1842 22.1393 29.3794 22.5332 30.6069 22.5332C31.8345 22.5332 33.0296 22.1393 34.0166 21.4093C35.0035 20.6793 35.73 19.6518 36.0894 18.478C36.2281 18.0438 36.502 17.6652 36.871 17.3977C37.2401 17.1301 37.685 16.9875 38.1409 16.9906C38.4792 16.9905 38.8128 17.0698 39.1148 17.2222C39.4168 17.3746 39.6788 17.5959 39.8796 17.8681C40.0805 18.1404 40.2145 18.456 40.271 18.7896C40.3274 19.1231 40.3048 19.4653 40.2047 19.7885C39.5665 21.8337 38.2914 23.6215 36.5654 24.891C34.8395 26.1604 32.753 26.8451 30.6105 26.8451C28.4679 26.8451 26.3815 26.1604 24.6555 24.891C22.9295 23.6215 21.6544 21.8337 21.0162 19.7885C20.9159 19.4658 20.8929 19.1242 20.9488 18.791C21.0047 18.4578 21.1381 18.1425 21.3382 17.8703C21.5383 17.5981 21.7995 17.3767 22.1009 17.2239C22.4022 17.0711 22.7351 16.9912 23.073 16.9906Z" fill="white"/>
<path d="M62.1085 29.2879C66.7717 29.2879 70.5426 26.0639 71.4925 21.2568H68.9882C68.2398 24.6822 65.4764 26.985 62.1085 26.985C57.8771 26.985 55.0562 23.8475 55.0562 19.1267C55.0562 14.406 57.8771 11.2684 62.1085 11.2684C65.2749 11.2684 67.9807 13.3697 68.873 16.5361H71.4061C70.3699 11.988 66.6278 8.96559 62.1085 8.96559C56.3227 8.96559 52.4655 13.0243 52.4655 19.1267C52.4655 25.2292 56.3227 29.2879 62.1085 29.2879ZM80.6 29.2879C82.5574 29.2879 84.6012 28.194 85.7238 26.5821V29H88.0266V14.6075H85.7238V17.0254C84.6012 15.4134 82.5574 14.3196 80.6 14.3196C76.3974 14.3196 73.5765 17.3133 73.5765 21.8037C73.5765 26.2942 76.3974 29.2879 80.6 29.2879ZM80.8303 27.2729C77.8654 27.2729 75.8793 25.0852 75.8793 21.8037C75.8793 18.5222 77.8654 16.3346 80.8303 16.3346C83.7664 16.3346 85.7238 18.5222 85.7238 21.8037C85.7238 25.0852 83.7664 27.2729 80.8303 27.2729ZM91.4709 29H93.7737V20.5948C93.7737 18.0329 95.5008 16.3346 98.0915 16.3346H99.0702V14.6075C98.7823 14.4348 98.3217 14.3196 97.89 14.3196C96.278 14.3196 94.9539 15.0392 93.7737 16.5936V14.6075H91.4709V29ZM106.747 29.2879C109.971 29.2879 112.735 27.2153 113.656 24.1065H111.353C110.72 26.0064 108.878 27.2729 106.747 27.2729C103.927 27.2729 101.969 25.2579 101.854 22.2643H113.742L113.973 22.034C113.973 17.3996 111.094 14.3196 106.747 14.3196C102.401 14.3196 99.5224 17.3133 99.5224 21.8037C99.5224 26.2942 102.401 29.2879 106.747 29.2879ZM101.969 20.2493C102.516 17.745 104.243 16.3346 106.747 16.3346C109.252 16.3346 110.979 17.745 111.526 20.2493H101.969ZM123.276 29.2879C126.5 29.2879 129.264 27.2153 130.185 24.1065H127.882C127.249 26.0064 125.406 27.2729 123.276 27.2729C120.455 27.2729 118.498 25.2579 118.383 22.2643H130.271L130.501 22.034C130.501 17.3996 127.623 14.3196 123.276 14.3196C118.93 14.3196 116.051 17.3133 116.051 21.8037C116.051 26.2942 118.93 29.2879 123.276 29.2879ZM118.498 20.2493C119.045 17.745 120.772 16.3346 123.276 16.3346C125.781 16.3346 127.508 17.745 128.055 20.2493H118.498ZM133.271 29H135.574V20.5948C135.574 18.0329 137.301 16.3346 139.892 16.3346H140.87V14.6075C140.583 14.4348 140.122 14.3196 139.69 14.3196C138.078 14.3196 136.754 15.0392 135.574 16.5936V14.6075H133.271V29ZM152.745 29.403C158.53 29.403 162.388 25.2867 162.388 19.0979V17.8026H151.881V21.2568H158.387C157.667 24.0778 155.393 25.9488 152.745 25.9488C148.887 25.9488 146.326 23.2142 146.326 19.0979C146.326 15.0105 148.887 12.3047 152.745 12.3047C154.644 12.3047 156.602 13.5136 157.638 15.3271L161.236 14.4348C159.509 11.0957 156.112 8.85045 152.745 8.85045C146.585 8.85045 142.468 12.9379 142.468 19.0979C142.468 25.2867 146.585 29.403 152.745 29.403ZM164.464 29H167.918V20.4796C167.918 18.551 169.444 17.2557 171.747 17.2557H172.927V14.6075C172.524 14.4348 171.92 14.3196 171.401 14.3196C170.077 14.3196 168.667 15.1256 167.918 16.3058V14.6075H164.464V29ZM180.853 29.403C185.545 29.403 188.654 26.3518 188.654 21.8037C188.654 17.2557 185.545 14.2045 180.853 14.2045C176.161 14.2045 173.053 17.2557 173.053 21.8037C173.053 26.3518 176.161 29.403 180.853 29.403ZM180.853 26.3518C178.234 26.3518 176.507 24.5383 176.507 21.8037C176.507 19.0691 178.234 17.2557 180.853 17.2557C183.473 17.2557 185.2 19.0691 185.2 21.8037C185.2 24.5383 183.473 26.3518 180.853 26.3518ZM193.575 29H197.086L199.533 19.7024L202.009 29H205.52L210.472 14.6075H206.845L203.822 25.0852L201.145 14.6075H197.921L195.244 25.0852L192.222 14.6075H188.595L193.575 29ZM218.984 29.403C219.934 29.403 220.912 29.2303 221.43 29V26.5245H218.926C218.178 26.5245 217.659 26.0351 217.659 25.3155V17.486H221.286V14.6075H217.659V9.25344H214.205V14.6075H211.902V17.486H214.205V25.3155C214.205 27.7622 216.105 29.403 218.984 29.403ZM223.552 29H227.007V20.4508C227.007 18.5222 228.417 17.2557 230.518 17.2557C232.62 17.2557 234.03 18.5222 234.03 20.4508V29H237.484V20.0478C237.484 16.5361 234.865 14.2045 230.921 14.2045C229.511 14.2045 227.956 14.7802 227.007 15.6725V9.25344H223.552V29Z" fill="#001F42"/>
</svg>
